<svg width="40" height="40" viewBox="0 0 40 40" fill="none" xmlns="http://www.w3.org/2000/svg">
<path d="M18.7884 33.8554C18.638 34.0145 18.5205 34.2017 18.4425 34.4062C18.3644 34.6108 18.3275 34.8287 18.3337 35.0475C18.3398 35.2664 18.3891 35.4819 18.4785 35.6817C18.568 35.8815 18.696 36.0617 18.8551 36.2121C19.0142 36.3624 19.2014 36.48 19.4059 36.558C19.6105 36.636 19.8284 36.673 20.0472 36.6668C20.266 36.6606 20.4815 36.6114 20.6813 36.5219C20.8811 36.4325 21.0614 36.3045 21.2117 36.1454L35.3784 21.1454C35.671 20.8359 35.834 20.4263 35.834 20.0004C35.834 19.5745 35.671 19.1648 35.3784 18.8554L21.2117 3.85373C21.0624 3.69113 20.8822 3.55983 20.6816 3.46745C20.4811 3.37508 20.2642 3.32347 20.0435 3.31563C19.8229 3.30779 19.6029 3.34388 19.3963 3.42179C19.1897 3.4997 19.0006 3.61788 18.8401 3.76947C18.6795 3.92106 18.5507 4.10304 18.4611 4.30483C18.3715 4.50663 18.3229 4.72422 18.3181 4.94496C18.3133 5.1657 18.3524 5.3852 18.4331 5.59071C18.5139 5.79621 18.6346 5.98363 18.7884 6.14206L31.8751 20.0004L18.7884 33.8554V33.8554Z" fill="white"/>
</svg>
