<svg width="40" height="40" viewBox="0 0 40 40" fill="none" xmlns="http://www.w3.org/2000/svg">
<path d="M21.2116 6.1446C21.362 5.98548 21.4795 5.79831 21.5575 5.59376C21.6356 5.38921 21.6725 5.1713 21.6663 4.95246C21.6602 4.73362 21.6109 4.51815 21.5215 4.31834C21.432 4.11853 21.304 3.9383 21.1449 3.78793C20.9858 3.63757 20.7986 3.52002 20.5941 3.44199C20.3895 3.36397 20.1716 3.327 19.9528 3.33319C19.734 3.33938 19.5185 3.38861 19.3187 3.47807C19.1189 3.56754 18.9386 3.69548 18.7883 3.8546L4.62159 18.8546C4.32903 19.1641 4.16602 19.5737 4.16602 19.9996C4.16602 20.4255 4.32903 20.8352 4.62159 21.1446L18.7883 36.1463C18.9376 36.3089 19.1178 36.4402 19.3184 36.5325C19.5189 36.6249 19.7358 36.6765 19.9565 36.6844C20.1771 36.6922 20.3971 36.6561 20.6037 36.5782C20.8103 36.5003 20.9994 36.3821 21.1599 36.2305C21.3205 36.0789 21.4493 35.897 21.5389 35.6952C21.6285 35.4934 21.6771 35.2758 21.6819 35.055C21.6867 34.8343 21.6476 34.6148 21.5669 34.4093C21.4861 34.2038 21.3654 34.0164 21.2116 33.8579L8.12492 19.9996L21.2116 6.1446V6.1446Z" fill="white"/>
</svg>
