<svg width="24" height="24" viewBox="0 0 24 24" fill="none" xmlns="http://www.w3.org/2000/svg">
<path d="M18 9.75H16.5C16.4994 9.15345 16.2622 8.5815 15.8403 8.15967C15.4185 7.73784 14.8466 7.5006 14.25 7.5V6C15.2442 6.00119 16.1973 6.39666 16.9003 7.09966C17.6033 7.80267 17.9988 8.7558 18 9.75Z" fill="#FE9933"/>
<path d="M21 9.75H19.5C19.4984 8.3581 18.9448 7.02367 17.9606 6.03944C16.9763 5.05522 15.6419 4.50159 14.25 4.5V3C16.0396 3.00199 17.7553 3.71378 19.0208 4.97922C20.2862 6.24466 20.998 7.9604 21 9.75Z" fill="#FE9933"/>
<path d="M15.2495 16.1115L16.9295 14.4315C17.1544 14.2066 17.4403 14.0526 17.7519 13.9886C18.0635 13.9246 18.3869 13.9534 18.6823 14.0715L20.7283 14.8905C21.0298 15.0112 21.2883 15.2194 21.4704 15.4884C21.6525 15.7573 21.7498 16.0747 21.7498 16.3995V20.1202C21.7503 20.3414 21.7057 20.5603 21.6187 20.7636C21.5317 20.9669 21.4041 21.1503 21.2437 21.3026C21.0833 21.4549 20.8936 21.5729 20.6861 21.6493C20.4785 21.7257 20.2576 21.7589 20.0368 21.747C5.69527 20.8545 2.79877 8.7075 2.26102 4.056C2.23498 3.8286 2.25737 3.59825 2.32673 3.38013C2.39609 3.162 2.51085 2.96103 2.66345 2.79043C2.81605 2.61983 3.00304 2.48348 3.21212 2.39033C3.4212 2.29719 3.64763 2.24936 3.87652 2.25H7.53127C7.85607 2.24999 8.17343 2.3473 8.4424 2.52937C8.71137 2.71145 8.91961 2.96994 9.04027 3.2715L9.85852 5.3175C9.9766 5.61283 10.0054 5.93632 9.94145 6.24788C9.87745 6.55944 9.72345 6.84537 9.49852 7.07025L7.81852 8.75025C7.81852 8.75025 8.75002 15.2992 15.2495 16.1115Z" fill="#FE9933"/>
</svg>
